The Baxter 
http://www.imdb.com/title/tt0401244/

Source  : 
http://thepiratebay.org/torrent/4982325/The_Baxter_(2005)_DVDRip

Info    :

ID                               : 1
Format                           : AVC
Format/Info                      : Advanced Video Codec
Format profile                   : Baseline@L2.1
Format settings, CABAC           : No
Format settings, ReFrames        : 3 frames
Codec ID                         : avc1
Codec ID/Info                    : Advanced Video Coding
Duration                         : 1h 31mn
Bit rate mode                    : Variable
Bit rate                         : 400 Kbps
Width                            : 480 pixels
Height                           : 256 pixels
Display aspect ratio             : 1.875
Frame rate mode                  : Variable
Frame rate                       : 23.976 fps
Minimum frame rate               : 23.974 fps
Maximum frame rate               : 23.981 fps
Color space                      : YUV
Chroma subsampling               : 4:2:0
Bit depth                        : 8 bits
Scan type                        : Progressive
Bits/(Pixel*Frame)               : 0.136
Stream size                      : 260 MiB (75%)
Writing library                  : x264 core 79

ID                               : 2
Format                           : AAC
Format/Info                      : Advanced Audio Codec
Format version                   : Version 4
Format profile                   : LC
Format settings, SBR             : No
Codec ID                         : 40
Duration                         : 1h 31mn
Bit rate mode                    : Variable
Bit rate                         : 128 Kbps
Maximum bit rate                 : 211 Kbps
Channel(s)                       : 2 channels
Channel positions                : Front: L R
Sampling rate                    : 48.0 KHz
Stream size                      : 83.3 MiB (24%)

Screens :  
http://img28.imageshack.us/img28/6819/vlcsnap00001y.png 
http://img189.imageshack.us/img189/4035/vlcsnap00002w.png 
http://img532.imageshack.us/img532/849/vlcsnap00003ev.png 
http://img143.imageshack.us/img143/5236/vlcsnap00004ek.png 
http://img193.imageshack.us/img193/539/vlcsnap00005ja.png 
http://img819.imageshack.us/img819/9338/vlcsnap00006.png





PLEASE LET THE TORRENT SEED AND SHARE IT WITH ALL YOU KNOW!

Let me know what I can do to be your trusted source of Handheld videos.

-OOO